<?xml version="1.0" standalone="no"?>
<!DOCTYPE svg PUBLIC "-//W3C//DTD SVG 20010904//EN"
 "http://www.w3.org/TR/2001/REC-SVG-20010904/DTD/svg10.dtd">
<svg version="1.0" xmlns="http://www.w3.org/2000/svg"
 width="512.000000pt" height="512.000000pt" viewBox="0 0 512.000000 512.000000"
 preserveAspectRatio="xMidYMid meet">

<g transform="translate(0.000000,512.000000) scale(0.100000,-0.100000)"
fill="#000000" stroke="none">
<path d="M796 5024 c-352 -64 -639 -356 -702 -716 -50 -284 45 -573 256 -779
l78 -77 -34 -33 c-48 -46 -92 -117 -123 -197 -25 -66 -25 -72 -29 -379 -4
-348 4 -421 58 -555 63 -155 200 -308 343 -383 l77 -40 0 -111 0 -111 -57 -38
c-76 -50 -194 -165 -249 -242 -56 -78 -118 -210 -146 -310 -21 -74 -22 -103
-26 -526 l-3 -448 958 3 958 3 68 23 c83 28 741 327 779 353 23 17 46 19 208
19 111 0 198 5 222 12 48 14 121 76 138 118 l12 30 626 0 c461 0 635 3 666 12
86 26 166 136 166 228 0 92 -80 202 -166 228 -28 8 -129 12 -313 12 l-272 0
-24 25 c-21 20 -25 34 -25 79 l0 54 248 4 248 3 76 37 c91 45 147 103 191 196
l32 67 0 1135 0 1135 -32 67 c-43 92 -101 151 -187 192 -39 19 -79 37 -88 40
-12 4 -18 16 -18 37 0 39 -24 137 -52 209 -39 101 -111 211 -193 295 -342 348
-894 353 -1241 10 -138 -135 -237 -336 -256 -515 l-3 -25 -562 -3 -563 -2 0
34 c0 65 -31 210 -61 285 -91 227 -279 415 -503 502 -144 56 -321 72 -480 43z
m379 -178 c113 -36 198 -89 290 -181 91 -91 144 -175 182 -290 23 -71 26 -96
26 -215 0 -119 -3 -144 -26 -215 -46 -141 -143 -275 -259 -361 l-58 -43 -58
27 -57 27 -265 0 c-245 -1 -269 -2 -321 -22 l-56 -21 -34 26 c-252 189 -357
507 -264 798 35 112 88 197 180 290 109 110 234 177 380 204 88 16 250 4 340
-24z m2880 -80 c113 -36 198 -89 290 -181 91 -91 144 -175 182 -290 23 -71 26
-96 26 -215 0 -119 -3 -144 -26 -215 -38 -115 -91 -199 -182 -290 -91 -91
-175 -144 -290 -182 -71 -23 -96 -26 -215 -26 -119 0 -144 3 -215 26 -115 38
-199 91 -290 182 -91 91 -144 175 -182 290 -23 71 -26 96 -26 215 0 119 3 144
26 215 38 114 90 198 182 291 109 110 234 177 380 204 88 16 250 4 340 -24z
m-1087 -796 c19 -179 118 -380 256 -515 484 -478 1304 -245 1470 416 9 36 16
75 16 87 0 66 133 -41 158 -127 9 -28 12 -274 12 -895 l0 -856 -1651 0 -1651
0 7 48 c3 28 -6 167 -24 348 -17 165 -31 306 -31 312 0 8 28 12 91 12 123 0
163 13 224 75 102 101 102 229 0 330 -62 63 -101 75 -234 75 -74 0 -101 3
-101 13 0 6 -13 40 -29 74 l-30 62 66 53 c129 102 248 287 289 448 l18 70 571
-2 570 -3 3 -25z m-1774 -542 c45 -13 146 -105 146 -132 0 -13 -14 -16 -78
-16 -155 0 -212 -40 -297 -211 l-55 -109 -256 0 -257 0 5 89 c6 106 41 193
107 264 44 48 135 101 197 116 60 14 439 13 488 -1z m541 -333 c16 -15 25 -36
25 -55 0 -19 -9 -40 -25 -55 l-24 -25 -311 0 -310 0 35 69 c19 39 43 74 52 80
11 6 118 11 276 11 l258 0 24 -25z m-1129 -317 c-22 -36 -46 -127 -46 -178 0
-96 49 -207 124 -279 l36 -35 0 -119 c0 -137 2 -135 -84 -65 -113 93 -193 220
-221 353 -9 42 -15 126 -15 208 l0 137 110 0 110 0 -14 -22z m764 10 c0 -6 14
-149 31 -317 33 -327 32 -349 -12 -405 -42 -53 -86 -66 -224 -66 l-125 0 0
-80 0 -80 80 0 80 0 0 -39 0 -38 -87 -6 c-49 -4 -121 -15 -160 -26 l-73 -19 0
321 0 320 -69 72 c-117 120 -123 226 -18 333 l41 42 268 0 c196 0 268 -3 268
-12z m3510 -1004 c0 -78 -5 -154 -12 -178 -16 -55 -99 -138 -154 -154 -32 -9
-370 -12 -1437 -12 l-1395 0 -59 56 c-106 102 -263 193 -397 229 l-66 18 0 57
c0 57 0 57 40 75 22 10 45 24 51 32 10 11 301 13 1720 13 l1709 0 0 -136z
m-3580 -195 c288 -46 532 -259 618 -540 22 -73 76 -423 68 -444 -2 -7 -25 -21
-50 -30 -25 -10 -46 -22 -46 -27 0 -7 57 -127 65 -136 1 -1 107 45 235 103
128 58 234 104 236 102 6 -6 83 -178 86 -192 4 -19 -276 -149 -366 -170 -167
-40 -337 8 -462 130 -81 79 -109 139 -183 384 -33 112 -63 206 -65 208 -9 9
-146 -38 -146 -50 0 -34 125 -422 156 -485 21 -43 60 -99 96 -137 l60 -65
-601 0 -601 0 0 323 c0 354 6 410 53 536 78 207 248 375 456 451 132 48 257
61 391 39z m1180 -538 l0 -228 -166 -76 c-108 -50 -166 -72 -169 -64 -2 7 -14
80 -25 162 -24 174 -48 269 -90 362 -17 36 -30 67 -30 69 0 2 108 4 240 4
l240 0 0 -229z m800 147 l0 -83 -163 0 c-143 0 -170 -3 -228 -23 -77 -27 -141
-65 -204 -123 l-45 -42 0 177 0 176 320 0 320 0 0 -82z m800 26 c0 -31 5 -75
12 -98 16 -55 99 -138 154 -154 28 -8 129 -12 313 -12 l272 0 24 -25 c16 -15
25 -36 25 -55 0 -19 -9 -40 -25 -55 l-24 -25 -621 0 c-489 0 -620 3 -620 13 0
30 -62 139 -104 183 l-46 48 0 118 0 118 320 0 320 0 0 -56z m-806 -276 c55
-16 138 -99 154 -154 19 -64 15 -102 -13 -129 -23 -24 -29 -25 -160 -25 l-135
0 0 43 c0 88 -62 198 -134 236 -55 30 -30 38 133 40 64 0 132 -4 155 -11z
m-374 -163 c57 -29 76 -104 41 -160 -14 -24 -47 -44 -146 -88 -70 -32 -128
-57 -130 -55 -1 2 -22 49 -47 104 l-45 102 121 56 c128 59 159 65 206 41z"/>
<path d="M910 4425 l-125 -375 -47 95 -48 95 -145 0 -145 0 0 -80 0 -80 95 0
95 0 110 -220 c61 -121 112 -220 114 -220 3 0 53 146 113 325 59 179 110 325
113 325 3 0 27 -65 53 -145 l48 -145 190 0 189 0 0 80 0 79 -132 3 -131 3
-106 318 c-58 174 -108 317 -111 317 -3 0 -61 -169 -130 -375z"/>
<path d="M3360 4400 l0 -80 80 0 80 0 0 80 0 80 -80 0 -80 0 0 -80z"/>
<path d="M3680 4400 l0 -80 320 0 320 0 0 80 0 80 -320 0 -320 0 0 -80z"/>
<path d="M3360 4080 l0 -80 80 0 80 0 0 80 0 80 -80 0 -80 0 0 -80z"/>
<path d="M3680 4080 l0 -80 320 0 320 0 0 80 0 80 -320 0 -320 0 0 -80z"/>
<path d="M3360 3760 l0 -80 80 0 80 0 0 80 0 80 -80 0 -80 0 0 -80z"/>
<path d="M3680 3760 l0 -80 320 0 320 0 0 80 0 80 -320 0 -320 0 0 -80z"/>
<path d="M2080 3760 l0 -80 400 0 400 0 0 80 0 80 -400 0 -400 0 0 -80z"/>
<path d="M2080 3440 l0 -80 400 0 400 0 0 80 0 80 -400 0 -400 0 0 -80z"/>
<path d="M2080 3120 l0 -80 400 0 400 0 0 80 0 80 -400 0 -400 0 0 -80z"/>
<path d="M3040 2960 l0 -80 840 0 840 0 0 80 0 80 -840 0 -840 0 0 -80z"/>
<path d="M2080 2560 l0 -320 400 0 400 0 0 320 0 320 -400 0 -400 0 0 -320z
m640 0 l0 -160 -240 0 -240 0 0 160 0 160 240 0 240 0 0 -160z"/>
<path d="M3040 2640 l0 -80 840 0 840 0 0 80 0 80 -840 0 -840 0 0 -80z"/>
<path d="M3040 2320 l0 -80 80 0 80 0 0 80 0 80 -80 0 -80 0 0 -80z"/>
<path d="M3360 2320 l0 -80 680 0 680 0 0 80 0 80 -680 0 -680 0 0 -80z"/>
<path d="M3920 1680 l0 -80 80 0 80 0 0 80 0 80 -80 0 -80 0 0 -80z"/>
<path d="M4240 1680 l0 -80 80 0 80 0 0 80 0 80 -80 0 -80 0 0 -80z"/>
<path d="M4560 1680 l0 -80 80 0 80 0 0 80 0 80 -80 0 -80 0 0 -80z"/>
</g>
</svg>
